<svg xmlns="http://www.w3.org/2000/svg" width="38" height="38" viewBox="0 0 38 38">
  <g id="Grupo_308" data-name="Grupo 308" transform="translate(1077 -1162)">
    <g id="Grupo_302" data-name="Grupo 302" transform="translate(-1205 -15)">
      <g id="Capa_2" data-name="Capa 2" transform="translate(132.31 1184)">
        <g id="Capa_1" data-name="Capa 1">
          <path id="Trazado_4" data-name="Trazado 4" d="M27.989,8.123a1.015,1.015,0,0,0-1.4.187l-.957,1.253A12.269,12.269,0,0,0,14.894.072,12.412,12.412,0,0,0,2.306,7.058a.972.972,0,0,0,.537,1.2,1.012,1.012,0,0,0,1.274-.388,10.337,10.337,0,0,1,10.548-6.02,10.22,10.22,0,0,1,9.011,8.064L22.5,8.757a1.031,1.031,0,0,0-1.472,0,.965.965,0,0,0,0,1.44l2.944,2.881a.985.985,0,0,0,1.457-.115l2.782-3.485a.98.98,0,0,0-.221-1.354Z" transform="translate(0.992 0.001)"/>
          <path id="Trazado_5" data-name="Trazado 5" d="M25.579,12.689a1.01,1.01,0,0,0-1.325.475,10.338,10.338,0,0,1-10.54,6,10.221,10.221,0,0,1-9.006-8.041l1.177,1.152a1.031,1.031,0,0,0,1.472,0,.979.979,0,0,0,0-1.44L4.415,7.951a.985.985,0,0,0-1.472,0L.206,11.537A.957.957,0,0,0,.39,12.9a1.007,1.007,0,0,0,1.391-.18l.971-1.253A12.255,12.255,0,0,0,13.5,20.94a12.4,12.4,0,0,0,12.566-7.012.971.971,0,0,0-.486-1.239Z" transform="translate(-0.001 3.99)"/>
        </g>
      </g>
      <rect id="Rectángulo_650" data-name="Rectángulo 650" width="38" height="38" transform="translate(128 1177)" fill="none"/>
    </g>
  </g>
</svg>
