<svg xmlns="http://www.w3.org/2000/svg" width="38" height="38" viewBox="0 0 38 38">
  <g id="Grupo_311" data-name="Grupo 311" transform="translate(904 -1162)">
    <g id="Grupo_304" data-name="Grupo 304" transform="translate(-12 17)">
      <rect id="Rectángulo_653" data-name="Rectángulo 653" width="38" height="38" transform="translate(-892 1145)" fill="none"/>
      <g id="award" transform="translate(-880.874 1152.8)">
        <path id="Trazado_32_-_Contorno" data-name="Trazado 32 - Contorno" d="M16.425,13.08a.727.727,0,0,1,.721.632l1.307,9.854a.727.727,0,0,1-1.1.719L12.33,21.268,7.3,24.285a.727.727,0,0,1-1.1-.714l1.219-9.75a.727.727,0,0,1,1.06-.554l.536.282.628.3.429.167.52.156.553.112.5.064h.664l.957-.068.5-.109.79-.208.935-.4.51-.351A.727.727,0,0,1,16.425,13.08Zm.388,9.182-.964-7.268-.758.325a.727.727,0,0,1-.1.035l-.857.226-.032.008-.571.124a.728.728,0,0,1-.1.015L12.4,15.8H11.61a.728.728,0,0,1-.092-.006l-.573-.073-.052-.009-.612-.124-.066-.016-.58-.175-.055-.019-.48-.186-.047-.02-.309-.146-.906,7.243L11.956,19.8a.727.727,0,0,1,.748,0Z" transform="translate(-4.839 -0.189)"/>
        <path id="Elipse_2" data-name="Elipse 2" d="M7.419-.8A8.219,8.219,0,1,1-.8,7.419,8.219,8.219,0,0,1,7.419-.8Zm0,14.983A6.764,6.764,0,1,0,.655,7.419a6.764,6.764,0,0,0,6.764,6.764Z"/>
      </g>
    </g>
  </g>
</svg>
