<svg xmlns="http://www.w3.org/2000/svg" xmlns:xlink="http://www.w3.org/1999/xlink" width="38" height="38" viewBox="0 0 38 38">
  <defs>
    <clipPath id="clip-path">
      <rect id="Rect치ngulo_15" data-name="Rect치ngulo 15" width="26.296" height="26.382" fill="none" stroke="#000" stroke-linecap="round" stroke-linejoin="round" stroke-width="1"/>
    </clipPath>
  </defs>
  <g id="Grupo_310" data-name="Grupo 310" transform="translate(968 -1162)">
    <g id="Grupo_305" data-name="Grupo 305" transform="translate(-1163 -240)">
      <rect id="Rect치ngulo_654" data-name="Rect치ngulo 654" width="38" height="38" transform="translate(195 1402)" fill="none"/>
      <g id="Grupo_300" data-name="Grupo 300" transform="translate(-132.685 224)">
        <g id="Grupo_6" data-name="Grupo 6" transform="translate(333.685 1184)">
          <path id="Trazado_6_-_Contorno" data-name="Trazado 6 - Contorno" d="M17.032,10.534a.249.249,0,0,1-.115-.028L12.83,8.383a.25.25,0,0,1-.106-.338l3.4-6.493a.25.25,0,0,1,.424-.031l3.036,4.172a.25.25,0,0,1,.019.264L17.253,10.4A.25.25,0,0,1,17.032,10.534ZM13.283,8.055l3.644,1.893,2.158-4.087-2.707-3.72Z" transform="translate(-6.726 -0.867)"/>
          <path id="Trazado_7_-_Contorno" data-name="Trazado 7 - Contorno" d="M9.152,37.522h.006l5.287.123a.25.25,0,0,1,.244.248l.036,4.926a.25.25,0,0,1-.255.252l-7.709-.149a.25.25,0,0,1-.22-.359l2.386-4.9A.25.25,0,0,1,9.152,37.522Zm5.039.617-4.884-.113-2.145,4.4,7.061.137Z" transform="translate(-3.516 -19.626)"/>
          <path id="Trazado_8_-_Contorno" data-name="Trazado 8 - Contorno" d="M41.867,22.6a.25.25,0,0,1,.218.128l3.772,6.725a.25.25,0,0,1-.2.372l-5.433.42a.25.25,0,0,1-.238-.128L37.416,25.5a.25.25,0,0,1,.09-.336l4.231-2.523A.25.25,0,0,1,41.867,22.6Zm3.362,6.756L41.774,23.2l-3.8,2.267,2.374,4.27Z" transform="translate(-19.556 -11.871)"/>
          <g id="Grupo_5" data-name="Grupo 5">
            <g id="Grupo_4" data-name="Grupo 4" clip-path="url(#clip-path)">
              <path id="Trazado_9" data-name="Trazado 9" d="M0,22.161a.2.2,0,0,0,.1.2L2.429,23.7l-2.1,3.659a1.757,1.757,0,0,0,0,1.729c.467.761,2.819,4.573,3.321,4.861h.007a.4.4,0,0,0,.2.053H11.14a.2.2,0,0,0,.2-.2l-.023-5.011a.2.2,0,0,0-.2-.2l-5.024-.012c.373-.738.753-1.474,1.1-2.14L9.27,27.633a.2.2,0,0,0,.3-.232L7.543,20.318a.2.2,0,0,0-.245-.141L.153,21.992A.2.2,0,0,0,0,22.161M10.909,29l.021,4.606-7.064.01-.011-.007a26.074,26.074,0,0,1,2.029-4.62Zm-3.7-8.379L9.04,27.036l-1.826-1.05a.2.2,0,0,0-.28.081,64.378,64.378,0,0,0-3.4,7.178c-.588-.768-1.791-2.621-2.855-4.358a1.346,1.346,0,0,1,0-1.323l2.2-3.835a.2.2,0,0,0-.075-.277L.737,22.262Z" transform="translate(0 -10.481)" fill="#040506"/>
              <path id="Trazado_9_-_Contorno" data-name="Trazado 9 - Contorno" d="M7.348,19.671a.7.7,0,0,1,.676.513l2.021,7.083a.7.7,0,0,1-.242.746.709.709,0,0,1-.122.077h1.432a.7.7,0,0,1,.7.7l.023,5.01a.7.7,0,0,1-.7.706H3.846a.9.9,0,0,1-.445-.119H3.395c-.149-.086-.425-.244-1.844-2.414-.7-1.068-1.39-2.188-1.655-2.62l-.01-.017a2.263,2.263,0,0,1,.008-2.223l1.852-3.225L-.147,22.8a.7.7,0,0,1,.178-1.291l7.144-1.815A.691.691,0,0,1,7.348,19.671Zm.871,6.316-1.36-4.764-4.8,1.22,1,.575a.705.705,0,0,1,.259.96l-2.2,3.835a.843.843,0,0,0-.009.821c.829,1.352,1.675,2.666,2.277,3.545.76-1.865,2.364-4.944,3.108-6.347a.7.7,0,0,1,.975-.278Zm.836,2.1-.038-.02-1.624-.934c-.16.306-.325.625-.491.949ZM10.411,29.5l-4.219-.009c-.956,1.919-1.453,3.041-1.68,3.625l5.915-.008Z" transform="translate(0 -10.481)"/>
              <path id="Trazado_10" data-name="Trazado 10" d="M39.77,28.976a.392.392,0,0,0-.051-.2l-3.6-6.335a.2.2,0,0,0-.277-.075l-4.344,2.5a.2.2,0,0,0-.075.276L33.9,29.515c-.826.041-1.653.074-2.405.1l.011-2.4a.2.2,0,0,0-.348-.143L26,32.332a.2.2,0,0,0,0,.283l5.11,5.313a.2.2,0,0,0,.348-.139l.012-2.684,4.219.018h.008a1.755,1.755,0,0,0,1.5-.85c.431-.782,2.581-4.712,2.584-5.29ZM36.834,34.07a1.345,1.345,0,0,1-1.146.647h-.007l-4.42-.017h0a.2.2,0,0,0-.2.2l-.011,2.387-4.627-4.81,4.671-4.763-.009,2.106a.2.2,0,0,0,.061.147.193.193,0,0,0,.147.057,64.51,64.51,0,0,0,7.922-.59c-.377.891-1.394,2.853-2.377,4.637m2.53-5.1a26.078,26.078,0,0,1-5.018.52l-2.475-4.374,3.994-2.3,3.5,6.136Z" transform="translate(-13.475 -11.608)" fill="#040506"/>
              <path id="Trazado_10_-_Contorno" data-name="Trazado 10 - Contorno" d="M35.941,21.841a.7.7,0,0,1,.612.358l3.6,6.333a.893.893,0,0,1,.117.448h0c0,.173,0,.491-1.187,2.8-.6,1.177-1.27,2.39-1.459,2.734l-.01.017a2.263,2.263,0,0,1-1.926,1.092H35.68l-3.722-.016-.01,2.185a.7.7,0,0,1-.442.649.688.688,0,0,1-.261.05.706.706,0,0,1-.506-.215l-5.111-5.314a.7.7,0,0,1,0-.98l5.159-5.26a.706.706,0,0,1,.9-.091l-.7-1.246a.7.7,0,0,1,.261-.955l4.345-2.5a.7.7,0,0,1,.348-.089Zm2.67,6.8L35.679,23.5l-3.128,1.8,2.078,3.672c2.142-.117,3.362-.239,3.982-.331Zm-5.553.41L32,27.177v.041l-.008,1.876c.345-.013.708-.027,1.066-.043Zm-1.782,1.472a.7.7,0,0,1-.7-.709v-.872L27.116,32.48l3.435,3.571,0-1.153a.706.706,0,0,1,.7-.7l4.429.018a.843.843,0,0,0,.713-.4c.766-1.39,1.491-2.776,1.957-3.733-1.991.26-5.451.389-7.045.437Z" transform="translate(-13.475 -11.608)"/>
              <path id="Trazado_11" data-name="Trazado 11" d="M27.64,2.939a.2.2,0,0,0-.227-.006L25.147,4.371,22.885.809A1.747,1.747,0,0,0,21.356,0C20.465.059,16,.37,15.508.68H15.5a.4.4,0,0,0-.137.148L11.975,7.286a.2.2,0,0,0,.086.274l4.447,2.31a.2.2,0,0,0,.273-.086l2.346-4.443c.48.674.955,1.351,1.381,1.972L18.485,8.6a.2.2,0,0,0,.068.37l7.213,1.5a.2.2,0,0,0,.239-.151l1.714-7.17a.2.2,0,0,0-.079-.212M16.516,9.417,12.43,7.294,15.7,1.034l.011-.006a26.057,26.057,0,0,1,3.147,3.944Zm9.14.617L19.125,8.673,20.9,7.544a.2.2,0,0,0,.059-.286,64.4,64.4,0,0,0-4.77-6.35c.954-.163,3.153-.367,5.186-.5a1.347,1.347,0,0,1,1.167.621L24.913,4.76a.2.2,0,0,0,.28.062l2.015-1.278Z" transform="translate(-6.211)" fill="#040506"/>
              <path id="Trazado_11_-_Contorno" data-name="Trazado 11 - Contorno" d="M21.415-.5A2.261,2.261,0,0,1,23.307.541L25.3,3.681,27.145,2.51a.7.7,0,0,1,1.06.757l-1.714,7.17a.7.7,0,0,1-.827.525l-7.214-1.5a.706.706,0,0,1-.56-.7l-.668,1.265a.7.7,0,0,1-.945.3L11.831,8a.7.7,0,0,1-.3-.947L14.921.6V.594a.908.908,0,0,1,.3-.328h0l.01-.007c.144-.091.413-.261,2.993-.509,1.32-.127,2.7-.221,3.09-.247C21.354-.5,21.384-.5,21.415-.5Zm3.67,5.853a.7.7,0,0,1-.593-.325L22.12,1.3A.845.845,0,0,0,21.4.906c-1.582.1-3.139.243-4.2.368,1.3,1.539,3.278,4.39,4.176,5.7a.7.7,0,0,1-.206.991l-.736.467,4.85,1.011,1.153-4.82-.975.618a.7.7,0,0,1-.378.112Zm-6.808-.34c-1.255-1.739-2.017-2.7-2.428-3.172L13.1,7.082l3.2,1.663ZM19.8,7.17c-.2-.289-.406-.583-.612-.876l-1,1.906.033-.022Z" transform="translate(-6.211)"/>
            </g>
          </g>
        </g>
      </g>
    </g>
  </g>
</svg>
