<svg xmlns="http://www.w3.org/2000/svg" width="38" height="38" viewBox="0 0 38 38">
  <g id="Grupo_4" data-name="Grupo 4" transform="translate(-321 752)">
    <g id="Grupo_3" data-name="Grupo 3" transform="translate(321 -752)">
      <rect id="Rectángulo_654" data-name="Rectángulo 654" width="38" height="38" fill="none"/>
      <g id="Grupo_2" data-name="Grupo 2">
        <path id="Trazado_9" data-name="Trazado 9" d="M21.582,29.416H8.072a1.835,1.835,0,0,1-1.833-1.832V15.151H30.823v6.291a.65.65,0,1,0,1.3,0v-9.88a3.132,3.132,0,0,0-3.128-3.129h-.9V7.61a2.072,2.072,0,0,0-4.143,0v.823H20.6V7.61a2.071,2.071,0,1,0-4.143,0v.823H13.08V7.61a2.072,2.072,0,0,0-4.143,0v.823H8.072a3.133,3.133,0,0,0-3.13,3.129V27.584a3.133,3.133,0,0,0,3.13,3.129h13.51a.65.65,0,0,0,0-1.3ZM25.239,7.61a.776.776,0,0,1,1.551,0v2.942a.776.776,0,0,1-1.551,0Zm-7.483,0a.775.775,0,1,1,1.55,0v2.942a.775.775,0,1,1-1.55,0Zm-7.523,0a.776.776,0,0,1,1.551,0v2.942a.776.776,0,0,1-1.551,0ZM8.072,9.73h.865v.822a2.072,2.072,0,1,0,4.143,0V9.73h3.379v.822a2.072,2.072,0,0,0,4.143,0V9.73h3.341v.822a2.071,2.071,0,0,0,4.143,0V9.73h.9a1.834,1.834,0,0,1,1.832,1.832v2.293H6.239V11.562A1.835,1.835,0,0,1,8.072,9.73Z"/>
        <path id="Trazado_10" data-name="Trazado 10" d="M27.224,20.794a5.834,5.834,0,1,0,5.834,5.834A5.834,5.834,0,0,0,27.224,20.794Zm0,10.371a4.537,4.537,0,1,1,4.537-4.537,4.537,4.537,0,0,1-4.537,4.537Z"/>
        <path id="Trazado_11" data-name="Trazado 11" d="M12.635,17.353H9.382a.65.65,0,0,0,0,1.3h3.253a.65.65,0,0,0,0-1.3Z"/>
        <path id="Trazado_12" data-name="Trazado 12" d="M12.635,21.223H9.382a.65.65,0,1,0,0,1.3h3.253a.65.65,0,0,0,0-1.3Z"/>
        <path id="Trazado_13" data-name="Trazado 13" d="M12.635,25.073H9.382a.65.65,0,1,0,0,1.3h3.253a.65.65,0,0,0,0-1.3Z"/>
        <path id="Trazado_14" data-name="Trazado 14" d="M20.158,17.353H16.9a.65.65,0,1,0,0,1.3h3.254a.65.65,0,0,0,0-1.3Z"/>
        <path id="Trazado_15" data-name="Trazado 15" d="M20.158,21.223H16.9a.65.65,0,0,0,0,1.3h3.254a.65.65,0,0,0,0-1.3Z"/>
        <path id="Trazado_16" data-name="Trazado 16" d="M20.158,25.073H16.9a.65.65,0,0,0,0,1.3h3.254a.65.65,0,0,0,0-1.3Z"/>
        <path id="Trazado_17" data-name="Trazado 17" d="M24.388,17.353a.65.65,0,1,0,0,1.3h3.253a.65.65,0,0,0,0-1.3Z"/>
        <path id="Trazado_18" data-name="Trazado 18" d="M29.081,24.623l-2.527,3.129-1.74-1.519a.648.648,0,0,0-.853.977l2.248,1.962a.648.648,0,0,0,.426.159h.057a.65.65,0,0,0,.447-.238l2.95-3.652a.648.648,0,0,0-1.008-.816Z"/>
      </g>
    </g>
  </g>
</svg>
