<?xml version="1.0" encoding="utf-8"?>
<!-- Generator: Adobe Illustrator 26.4.1, SVG Export Plug-In . SVG Version: 6.00 Build 0)  -->
<svg version="1.1" id="Capa_1" xmlns="http://www.w3.org/2000/svg" xmlns:xlink="http://www.w3.org/1999/xlink" x="0px" y="0px"
	 viewBox="0 0 181 42" style="enable-background:new 0 0 181 42;" xml:space="preserve">
<style type="text/css">
	.st0{filter:url(#Adobe_OpacityMaskFilter);}
	.st1{fill-rule:evenodd;clip-rule:evenodd;fill:#FFFFFF;}
	.st2{mask:url(#b_00000172410482842509403460000003949810331800371887_);fill-rule:evenodd;clip-rule:evenodd;}
</style>
<g transform="translate(.828)">
	<defs>
		<filter id="Adobe_OpacityMaskFilter" filterUnits="userSpaceOnUse" x="0" y="0" width="181" height="42">
			<feColorMatrix  type="matrix" values="1 0 0 0 0  0 1 0 0 0  0 0 1 0 0  0 0 0 1 0"/>
		</filter>
	</defs>
	
		<mask maskUnits="userSpaceOnUse" x="0" y="0" width="181" height="42" id="b_00000172410482842509403460000003949810331800371887_">
		<g class="st0">
			<path id="a_00000056427418535112302000000001584928401216318138_" class="st1" d="M0,0h180v42H0V0z"/>
		</g>
	</mask>
	<path class="st2" d="M0,33h6.6V0H0V33z M24.5,7.2c1.7-0.2,3.4-0.2,5.1,0c1.7,0.2,3.3,0.8,4.8,1.5c1.5,0.7,2.4,1.6,3.3,2.7
		c0.9,1.1,1.5,2.5,1.8,3.9c0.2,0.8,0.4,1.6,0.4,2.5L40,33h-6.1V20.1c-0.2-1.2-0.5-2.5-0.7-3.7c-0.1-0.8-0.4-1.7-1.2-2.2
		c-0.7-0.5-1.5-0.9-2.3-1.2c-1.2-0.3-2.4-0.5-3.6-0.5c-1.3,0-2.6,0.1-3.9,0.4c-1,0.2-2.1,0.5-3,1L17,15.2l-1,0.6V33h-6V7.6h6v2.2
		c0.9-0.4,1.7-1,2.6-1.3C20.5,7.9,22.5,7.4,24.5,7.2z M154,19h20c-0.2-0.5-0.3-1.1-0.5-1.5c-0.5-0.7-1.1-1.4-1.8-1.9
		c-0.8-0.6-1.7-1.2-2.6-1.6c-1.1-0.4-2.2-0.7-3.3-0.8c-1.2-0.1-2.5-0.1-3.7,0c-1.1,0.1-2.1,0.4-3.1,0.8c-0.9,0.4-1.8,0.9-2.6,1.5
		c-0.7,0.6-1.4,1.3-1.7,2.1L154,19z M136,8l-18.7,34h-6.7l4.8-8.7L102,8h6.9l10.2,19.2L129.3,8H136z M139,33h6V0h-6V33z M157.4,8.8
		c2.1-0.5,4.4-0.9,6.6-0.8c2.2,0,4.3,0.5,6.5,1c2,0.5,3.5,1.5,4.9,2.7c1.5,1.3,2.7,2.9,3.5,4.8c0.9,2.2,1.7,4.3,2.1,6.8h-26.9
		c0.4,0.9,0.8,1.9,1.4,2.5c0.7,0.7,1.5,1.4,2.3,1.9c0.9,0.6,1.9,0.9,2.9,1c1.1,0.1,2.2,0.4,3.3,0.4c1.7,0,3.4-0.2,5.1-0.4
		c1.1-0.2,2.3-0.4,3.4-0.8c0.9-0.3,1.7-0.7,2.5-1.2l1.8-1l3.1,4.1c-1,0.6-2,1.2-3,1.8c-1.1,0.6-2.2,1.2-3.4,1.5
		c-1.4,0.4-2.7,0.7-4.1,0.8c-1.8,0.2-3.5,0.1-5.3,0.2c-2.5,0-4.7-0.4-6.9-1.2c-1.9-0.6-3.6-1.4-5.1-2.7c-1.3-1.1-2.4-2.5-3-4
		c-0.6-1.6-1-3.5-1-5.1c0.1-1.9,0.5-3.8,1.2-5.4c0.8-1.7,1.8-3.1,3.1-4.2C153.9,10.3,155.6,9.3,157.4,8.8L157.4,8.8z M44.8,9.7
		c0.2,1.6,0.7,3.1,1.8,4.3c1.3,1.4,2.7,2.2,4.3,2.8c2,0.7,3.9,1.3,5.9,1.5c1.7,0.2,3.5,0.3,5.2,0.4c1.9,0.1,3.8,0.1,5.7,0.4
		c1.4,0.2,2.8,0.6,4.2,1c1.2,0.3,2,1.1,2.6,2.1c0.4,0.6,0.5,1.4,0.2,2.1c-0.3,0.9-0.7,1.7-1.4,2.2c-0.9,0.7-1.8,1.3-3,1.5
		c-1.3,0.3-2.7,0.5-4.1,0.6c-2,0.1-3.9,0-5.9-0.2c-2.1-0.2-4.1-0.5-6.1-1c-1.6-0.3-3.2-0.6-4.6-1.4l-3.6-2.1l-3.1,5
		c1.5,0.7,3,1.5,4.5,2.1c1.6,0.6,3.2,1.3,4.8,1.7c1.8,0.4,3.6,0.6,5.5,0.8c2.1,0.2,4.2,0.3,6.3,0.2c2.4-0.1,4.8-0.4,7.1-0.8
		c2-0.4,3.7-1.3,5.4-2.2c1.4-0.8,2.5-2.1,3.4-3.5c0.8-1.3,1.1-2.7,1-4.2c-0.1-1.9-0.9-3.5-2.2-5c-1.2-1.4-2.5-2.5-4.5-3.1
		c-2-0.6-4.1-1.1-6.3-1.5c-2-0.3-4.1-0.3-6.1-0.5c-1-0.1-1.9-0.2-2.9-0.3c-1.3-0.1-2.5-0.2-3.8-0.5c-1.2-0.2-2.2-0.6-3-1.3
		c-0.7-0.5-1.8-0.9-1.9-1.8c-0.1-0.8,0.9-1.3,1.6-1.8c0.8-0.6,1.6-1.2,2.5-1.5c1.2-0.5,2.5-0.6,3.8-0.8C59.5,5,60.8,4.8,62,4.8
		c1.7,0,3.4,0.1,5.1,0.3c1.4,0.2,2.8,0.6,4.1,1c1.3,0.4,2.5,0.8,3.7,1.4l2.9,1.5l3.1-4.3c-1.2-0.6-2.3-1.3-3.5-1.8
		c-1.3-0.6-2.7-1.1-4.1-1.5c-1.7-0.5-3.4-0.8-5.1-1C66.2,0.1,64.1,0,62,0c-2.3,0.1-4.6,0.4-6.9,0.8c-2,0.3-4,0.8-5.6,1.8
		c-1.5,0.8-2.8,1.9-3.7,3.2C45,7,44.6,8.3,44.8,9.7L44.8,9.7z M82,7.6h4.2V1h6.2v6.6h8v5h-8c0,4.9-0.6,9.8,0,14.7
		c0.1,0.8,1.2,0.8,1.9,0.9c0.8,0.1,1.5,0.4,2.3,0.4c0.6,0,1.2-0.1,1.8-0.2c0.4-0.1,0.9-0.2,1.3-0.3l0.5-0.1l0.3-0.3h0.2l1.3,5.2
		l-0.8,0.2c-0.6,0.1-1.2,0.3-1.9,0.4c-0.8,0.1-1.5,0.3-2.3,0.4c-0.8,0.1-1.7,0.3-2.5,0.2c-1.2-0.1-2.3-0.3-3.5-0.6
		c-0.9-0.2-1.8-0.7-2.5-1.5c-0.6-0.7-1.4-1.4-1.5-2.3L86.6,26l-0.3-13.4H82V7.6L82,7.6z"/>
</g>
</svg>
