<?xml version="1.0" encoding="utf-8"?>
<!-- Generator: Adobe Illustrator 22.0.1, SVG Export Plug-In . SVG Version: 6.00 Build 0)  -->
<svg version="1.1" id="Capa_1" xmlns="http://www.w3.org/2000/svg" xmlns:xlink="http://www.w3.org/1999/xlink" x="0px" y="0px"
	 viewBox="0 0 407 102" style="enable-background:new 0 0 407 102;" xml:space="preserve">
<path d="M102.1,66.7c-7.6,4.9-10.3-9.7-3-12.5c0.3-0.1,0.5,0.1,0.5,0.1l3,11.8C102.7,66.2,102.4,66.5,102.1,66.7 M118.9,68.3
	c-1.8,0.4-2.7-1-3.6-4.8c-1.8-7.9-2.4-11.6-3-14.2c-2-9.6-4.2-12.8-7.8-14.9c-4.9-2.8-12.8-3-18.3-0.3c0,0-0.2,0.1-0.2,0.3
	c0,1.1,0,5.2,0,5.6c0,0.3,0.2,0.1,0.2,0.1c4.4-1.7,11.2-2.9,12.2,7.2c0,0.1,0.2,0.5,0,0.5c-3.9,1-10.2,3-12.8,6
	c-6,6.5-3.4,17,3.2,19.7c3.7,1.5,11.3,2.7,16.8-2.7c3.5,3.5,6.1,3.5,8.3,3.5c0,0,4.8,0,5,0c0.2,0,0.2,0,0.2-0.6c0-0.2,0-3.2,0-5
	C119.1,68.4,119.1,68.3,118.9,68.3"/>
<path d="M79.2,70.9l0-2l0-19.4c0-6.5,1.6-17.2-9.3-17.2c-5.5,0-8.3,2.1-10.9,6.2c-0.1,0.1-0.2,0.2-0.3,0c-2.1-9.1-15.7-7.9-20.1-0.3
	c-0.1,0.1-0.2,0.3-0.3,0.4c-0.1,0.2-0.3,0.1-0.3-0.1c0-0.2,0-2.6,0-3.2c0-0.9,0-2.4,0-3.7c0-0.2-0.1-0.2-0.2-0.2
	c-8,4.2-12.8,6.7-12.8,6.7s-0.2,0.1-0.1,0.4c0.2,0.5,0.5,1.4,0.5,2.7c0,2,0,23.4,0,28.2v1.3c0,1.5-0.3,2.4-0.5,2.9
	c-0.1,0.3,0.2,0.2,0.2,0.2l10.7,0h2.6c0,0,0.3,0,0.2-0.2c-0.1-0.3-0.5-1-0.5-2.9l0-1.1c0-3.4,0-14.9,0-19.6c0-1.1,0-1.8,0-1.8
	c0-3.3,2.2-5.7,4.5-5.7c2.8,0,3.5,2.8,3.5,4.2l0,3.5l0,19.5c0,0,0,0.9,0,1c0,1.5-0.3,2.4-0.5,2.9c-0.1,0.3,0.2,0.2,0.2,0.2h10.7h2.6
	c0,0,0.3,0,0.2-0.2c-0.1-0.3-0.5-1-0.5-2.9c0-0.1,0-1.7,0-1.7l0-13.9c0-1.1,0-7,0-7c0-3.3,2.2-5.7,4.5-5.7c2.8,0,3.5,2.8,3.5,4.2
	l0,3.5l0,18.6l0,2c0,1.5-0.3,2.4-0.5,2.9c-0.1,0.3,0.2,0.2,0.2,0.2l10.7,0h2.6c0,0,0.3,0,0.2-0.2C79.6,73.5,79.2,72.8,79.2,70.9"/>
<path d="M147.1,32.2c-3.6-0.6-8.3-0.8-11.2,5.7c-0.1,0.1-0.2,0.3-0.3,0.3c-0.1,0.1-0.3,0.1-0.3-0.1c0-0.2,0-1.9-0.1-2.5
	c0-0.9,0-2.8,0-4c0-0.2-0.1-0.2-0.2-0.2c-7.9,4.1-13.7,7.5-13.7,7.5s-0.3,0.1-0.2,0.3c0.1,0.4,0.8,2.4,0.8,3.5c0,1.9,0,22.3,0,27.1
	l0,1.1c0,1.5-0.3,2.4-0.5,2.9c-0.1,0.3,0.2,0.2,0.2,0.2h10.7h3.2c0,0,0.3,0,0.2-0.2c-0.1-0.3-0.5-1-0.5-2.9l0-1.1
	c0-3.3,0-14.5,0-19.1v-0.9c0-6.3,5-8,9.4-6.9c0.5,0.1,0.6-0.1,0.7-0.5c0.1-0.5,1.7-7.9,1.9-9.2C147.5,32.5,147.5,32.3,147.1,32.2"/>
<path d="M309.2,16.3c-4.3,0-7.9,3.3-7.9,7.3c0,4,3.5,7.3,7.9,7.3c4.3,0,7.9-3.3,7.9-7.3C317,19.6,313.5,16.3,309.2,16.3"/>
<path d="M315.4,70.8c0-3.4,0-38.4,0-39.6c0-0.2-0.1-0.2-0.2-0.2c-8.3,4.2-13.4,7.1-13.4,7.1s-0.3,0-0.3,0.8c0,3,0,27,0,31.9
	c0,0.5,0,0.8,0,0.9c0,1.2-0.5,2.1-0.6,2.4l0,0.1h11.3h3.7l0-0.1c-0.1-0.3-0.6-1.2-0.6-2.4C315.4,71.5,315.4,71.2,315.4,70.8"/>
<path d="M343.7,41.8c0.1-0.5,1.7-7.6,1.9-8.9c0.1-0.7,0.2-0.9-0.3-0.9c-2.7-0.5-8-1.3-11.2,5.4c-0.1,0.1-0.2,0.3-0.3,0.3
	c-0.1,0.2-0.3,0.1-0.3-0.1c0-0.2,0-1.9,0-2.5c0-0.9,0-2.4,0-3.7c0-0.2-0.1-0.2-0.2-0.2c-8,4.2-13.7,7.1-13.7,7.1s-0.3,0.1-0.2,0.3
	c0.1,0.3,0.5,1.7,0.6,2.8c0,2,0,24.3,0,29.2v0.9c0,1.2-0.5,2.1-0.6,2.4l0,0.1h11h3.6l0-0.1c-0.1-0.3-0.6-1.2-0.6-2.4
	c0-0.1,0-0.4,0-0.8c0-3.3,0-15.8,0-20.4v-1.8c0-2.9,1.5-4.9,3.7-5.8c1.7-0.7,2.5-0.5,5.8-0.4C343.5,42.4,343.6,42.3,343.7,41.8"/>
<path d="M357.9,52.9c-0.7,0.2-0.9,0.2-0.9-0.8c-0.1-3,0.1-7.4,1.1-9.9c1.7-4.2,5-4.1,6.9-1.3c1,1.5,1.8,4.1,2,7.9
	c0.1,1.5-0.8,1.5-1.1,1.5C364.2,50.9,357.9,52.9,357.9,52.9 M379.4,50.5c-0.8-10.9-7.6-18.3-16.4-18.7c-11.2-0.4-18.7,7-19.3,20.8
	c-0.4,8.7,4.4,16.6,9.8,19.6c6.3,3.6,14.5,3,20.7,0.4c1.2-0.5,1.2-0.8,1.2-1.6v-4.9c0-0.4,0.1-1.1-0.8-0.5c-0.9,0.6-3.6,2-5.9,2.1
	c-4.6,0.3-8-0.7-10.3-8c-0.4-1.2-0.1-1,0.2-1.2c0.3-0.2,20.6-6.6,20.6-6.6C379.4,51.6,379.4,50.9,379.4,50.5"/>
<path d="M282.1,66.4c-7.6,5-10.4-9.7-3-12.6c0.3-0.1,0.5,0.1,0.5,0.1l3,11.8C282.7,66,282.3,66.3,282.1,66.4 M298.9,68.1
	c-1.8,0.4-2.7-1-3.6-4.8c-1.8-7.9-2.4-11.6-3-14.3c-2-9.6-4.2-12.8-7.8-14.9c-4.9-2.8-12.9-3-18.4-0.3c0,0-0.2,0.1-0.2,0.3
	c0,1.1,0,5.2,0,5.6c0,0.3,0.2,0.1,0.2,0.1c4.4-1.7,11.2-2.9,12.3,7.2c0,0.1,0.2,0.5,0,0.5c-4,1-10.2,3.1-12.9,6
	c-6,6.5-3.4,17.1,3.2,19.8c3.7,1.5,11.3,2.7,16.8-2.7c3.5,3.5,6.2,3.5,8.4,3.5c0,0,4.8,0,5.1,0c0.2,0,0.2,0,0.2-0.6
	c0-0.2,0-3.2,0-5.1C299.1,68.2,299.1,68.1,298.9,68.1"/>
<path d="M162.5,70.8c0-3.4,0-38.1,0-39.4c0-0.2-0.1-0.2-0.2-0.2c-8.3,4.2-13.4,7.1-13.4,7.1s-0.3,0-0.3,0.8c0,3,0,26.8,0,31.7
	c0,0.5,0,0.8,0,0.9c0,1.2-0.5,2.1-0.6,2.4l0,0.1h11.3h3.7l0-0.1c-0.1-0.3-0.6-1.2-0.6-2.4C162.5,71.5,162.5,71.2,162.5,70.8"/>
<path d="M155.7,16.3c-4.3,0-7.9,3.3-7.9,7.3s3.5,7.3,7.9,7.3c4.3,0,7.9-3.3,7.9-7.3S160,16.3,155.7,16.3"/>
<path d="M179.4,52.9c-0.7,0.2-0.9,0.2-0.9-0.8c-0.1-3,0.1-7.4,1.1-9.9c1.7-4.2,5.1-4.1,6.9-1.3c1,1.5,1.8,4.1,2,7.9
	c0.1,1.5-0.8,1.5-1.1,1.5C185.8,50.9,179.4,52.9,179.4,52.9 M184.5,31.8c-11.2-0.4-18.7,7-19.3,20.8c-0.4,8.7,4.4,16.6,9.8,19.6
	c6.3,3.6,14.5,3,20.7,0.4c1.2-0.5,1.2-0.8,1.2-1.6v-5c0-0.4,0.1-1.1-0.8-0.5c-0.9,0.6-3.6,2-5.9,2.1c-4.6,0.3-8-0.7-10.3-8
	c-0.4-1.2-0.1-1,0.2-1.2c0.3-0.2,20.6-6.6,20.6-6.6c0.4-0.2,0.4-0.9,0.3-1.4C200.1,39.6,193.3,32.2,184.5,31.8"/>
<path d="M258.4,16.6c0,0-9.6,5-14.6,7.8c0.5,0.5,1.6,2.5,1.6,9.2c0,7.4,0,14.6,0,17c0,4.9,0,14.2-0.1,21.5c0,0.8-0.5,1.9-0.5,2
	l14.5,0c-0.1,0-0.9-4.9-0.9-4.9S258.4,16.3,258.4,16.6"/>
<path d="M230.6,64.7c-2.8-4-4.2-7.5-4.2-13.3c0-13.1,8.2-14.8,14.3-10.9v-6.7c-3.5-2-8.1-2.3-11.5-1.9
	c-10.3,1.2-16.3,10.9-16.3,21.8c0,11.9,6.8,26.2,28.6,19.6v-6.9C238.2,68.1,233.4,68.7,230.6,64.7"/>
</svg>
