<svg id="a47a8d59-0a70-44bd-89d7-b48a0ce3768a" data-name="Capa 1" xmlns="http://www.w3.org/2000/svg" viewBox="0 0 331.33 91.4"><polygon points="81.22 0 80.72 0 52.22 71.3 15.82 0 15.5 0 15.5 0 15 0 0 86.61 0.8 86.61 0.8 86.6 1.12 86.6 11.22 27 43.82 91.4 45.14 91.4 69.82 29.05 79.32 86.6 95.92 86.6 81.22 0"/><path d="M201,54c0,2.28-1,6.08-4.81,6.08h-.13a5.81,5.81,0,0,1-5.83-5.83v-.13a13.42,13.42,0,0,1-.13-2.28v-.38h-.89v.25a12.05,12.05,0,0,0,.13,2.16,7.25,7.25,0,0,0,7.23,7.35h.63c7.86,0,9.26-6.34,9.51-9.13,0-.88.13-1.77.13-2.66V31.94h-5.71Z" transform="translate(-9.67 -0.6)"/><path d="M185.41,50.07q0,9.9-7.61,9.9c-5.07,0-6.34-5.08-6.34-9.39V31.81h-5.58V50c0,4.18,1.39,11.41,10.52,11.41,6.72,0,9.89-3.8,9.89-11.67V31.94h-.88V50.07Z" transform="translate(-9.67 -0.6)"/><polygon points="208.45 44.66 218.47 44.66 218.47 43.64 208.45 43.64 208.45 32.23 218.98 32.23 218.98 31.34 202.75 31.34 202.75 60.38 220.24 60.38 220.24 59.49 208.45 59.49 208.45 44.66"/><polygon points="146.19 30.2 145.56 30.2 134.78 55.44 121.97 30.45 121.97 30.33 121.21 30.33 115.63 60.38 116.52 60.38 120.45 38.95 132.11 61.9 132.24 62.03 132.87 62.03 142.51 39.46 146.06 60.38 151.64 60.38 146.31 30.45 146.19 30.2"/><path d="M303.85,31.56h-1.78a14.56,14.56,0,0,0-14.58,14.08v.76h0a14.36,14.36,0,0,0,13.44,15h1.65a14.65,14.65,0,0,0,15.09-14h0v-.89a14.44,14.44,0,0,0-13.82-15ZM302.7,60.47c-8,0-9.13-8.75-9.13-13.95,0-6.46,2.41-13.94,9.13-13.94,5.71,0,9,5.07,9,13.94s-3.43,13.95-9,13.95Z" transform="translate(-9.67 -0.6)"/><path d="M253.88,57.56c-1.52-3.68-3.67-9.26-9.76-10.66,4.18-.63,8-2.91,8-7.48s-4.06-7.61-10.27-7.61h-8.25V61h5.58V32.83h1c3.68,0,5.7,3.55,5.7,7a6.43,6.43,0,0,1-5.19,6.72h-.26v.89h.26c4.56,1.14,6.34,6.72,7.48,10.4a14.47,14.47,0,0,0,1.14,3l.12.13h6.22l-.38-.51A8.79,8.79,0,0,1,253.88,57.56Z" transform="translate(-9.67 -0.6)"/><polygon points="330.31 31.34 321.82 47.45 313.95 31.47 313.83 31.34 308 31.34 316.87 48.97 316.87 60.13 316.87 60.38 322.07 60.38 322.07 48.84 331.33 31.34 330.31 31.34"/><polygon points="267.42 43.64 256.51 43.64 256.51 31.34 250.81 31.34 250.81 60.38 256.51 60.38 256.51 44.66 267.42 44.66 267.42 60.38 273.12 60.38 273.12 31.34 267.42 31.34 267.42 43.64"/></svg>