<svg xmlns="http://www.w3.org/2000/svg" width="38" height="38" viewBox="0 0 38 38">
  <g id="Grupo_312" data-name="Grupo 312" transform="translate(1020 -1162)">
    <rect id="Rectángulo_651" data-name="Rectángulo 651" width="38" height="38" transform="translate(-1020 1162)" fill="none"/>
    <path id="heart_1_" data-name="heart (1)" d="M19.579,2.248a7.19,7.19,0,0,1,5.084,12.275L14.314,24.872a.75.75,0,0,1-1.061,0L2.9,14.523A7.192,7.192,0,1,1,13.073,4.355l.711.711.711-.711a7.141,7.141,0,0,1,5.084-2.107Zm-5.8,21.033L23.6,13.463a5.69,5.69,0,0,0-8.047-8.047l-1.239,1.24a.75.75,0,0,1-1.061,0l-1.24-1.241a5.69,5.69,0,1,0-8.047,8.047Z" transform="translate(-1014.775 1167.613)"/>
  </g>
</svg>
