<svg width="155" height="34" viewBox="0 0 808 86" fill="none" xmlns="http://www.w3.org/2000/svg">
<path d="M418.5 70.5H385.9V4H372.1V82.2H418.5V70.5Z" fill="black"/>
<path d="M449.3 61.1H475.6L481.7 82.3H496.3L470.8 4.10001H454.5L429 82.3H443.1L449.2 61.1H449.3ZM455.4 40.6C456.7 36.4 457.8 32.3 458.9 27.9C460 23.6 461.1 19.2 462.2 14.8H462.7C463.8 19.1 465 23.5 466.1 27.8C467.2 32.2 468.5 36.5 469.7 40.6L472.4 50.1H452.5L455.3 40.6H455.4Z" fill="black"/>
<path d="M527 51.6H539L555.8 82.2H571.2L552.6 49.6C557.3 48 561.1 45.4 563.9 41.7C566.8 38 568.1 33.2 568.1 27.2C568.1 21.2 567.3 19.1 565.9 16.2C564.4 13.2 562.4 10.9 559.8 9.10001C557.2 7.30001 554.2 6.00001 550.7 5.20001C547.2 4.40001 543.4 4 539.4 4H513V82.2H526.8V51.6H526.9H527ZM527.1 15.1H538.2C543.6 15.1 547.6 16 550.4 17.7C553.3 19.4 554.6 22.6 554.6 27.2C554.6 31.8 553.1 35.1 550.4 37.3C547.6 39.5 543.5 40.6 538.2 40.6H527.1V15.1Z" fill="black"/>
<path d="M599.7 75.4C602.3 78.3 605.4 80.4 609 81.7C612.6 83 616.7 83.6 621.2 83.6C625.7 83.6 629.8 82.9 633.4 81.7C637 80.4 640.1 78.3 642.7 75.4C645.3 72.5 647.3 68.9 648.6 64.3C649.9 59.8 650.6 54.4 650.6 47.9V4.10001H637.3V49C637.3 53.2 636.9 56.8 636.1 59.7C635.3 62.6 634.2 64.9 632.8 66.7C631.3 68.4 629.6 69.7 627.7 70.5C625.7 71.3 623.5 71.6 621.1 71.6C618.7 71.6 616.6 71.3 614.6 70.5C612.7 69.7 611.1 68.5 609.6 66.7C608.2 65 607.2 62.6 606.4 59.7C605.6 56.8 605.3 53.2 605.3 49V4.10001H591.5V47.9C591.5 54.4 592.2 59.9 593.6 64.3C595 68.8 597 72.5 599.6 75.4H599.7Z" fill="black"/>
<path d="M28.5 71.5C25 71.5 21.3 70.7 17.8 69.1C14.3 67.5 11.1 65.3 8.29996 62.7L0.199951 72.2C3.99995 75.9 8.29995 78.7 13.2 80.7C18.1 82.7 23.1999 83.7 28.3999 83.7C33.5999 83.7 36.7 83.1 40.2 81.9C43.6 80.6 46.6 79 49 76.9C51.4 74.7 53.2 72.3 54.6 69.5C56 66.7 56.5 63.7 56.5 60.5C56.5 57.3 56.1 55.1 55.3 52.9C54.5 50.7 53.4 48.7 52 47.1C50.6 45.5 48.9 44 47 42.7C45.1 41.4 43 40.3 40.7 39.3L30.1 34.9C28.5 34.3 26.9999 33.6 25.3999 33C23.8999 32.3 22.4999 31.5 21.3999 30.7C20.2999 29.9 19.3 29 18.6 27.8C17.9 26.7 17.6 25.4 17.6 23.9C17.6 21 18.7 18.8 21 17.2C23.2 15.5 26.2 14.8 30 14.8C33.8 14.8 36.4 15.4 39.1 16.5C41.8 17.7 44.5 19.3 47 21.4L54.2 12.4C51.1 9.39999 47.5 7.00001 43.3 5.20001C39.1 3.50001 34.7 2.5 30.1 2.5C25.5 2.5 22.7 3.10001 19.5 4.20001C16.3 5.30001 13.4 6.79999 11.2 8.89999C8.79995 10.9 6.99996 13.3 5.79996 15.9C4.49996 18.6 3.89996 21.5 3.89996 24.6C3.89996 27.7 4.29995 30 5.19995 32.3C6.09995 34.5 7.39996 36.5 8.79996 38.1C10.3 39.8 11.9999 41.2 13.8999 42.4C15.7999 43.6 17.7 44.6 19.5 45.4L30.2 50.1C31.9 50.8 33.5 51.6 35 52.3C36.5 53 37.8 53.8 38.8 54.7C39.8 55.6 40.7 56.6 41.3 57.7C41.9 58.8 42.2 60.1 42.2 61.7C42.2 64.7 41.1 67.1 38.7 68.9C36.3 70.7 33 71.7 28.5 71.7V71.5Z" fill="black"/>
<path d="M91.5999 4H77.7999V82.2H91.5999V4Z" fill="black"/>
<path d="M132 48C132 43.6 131.7 39.2 131.3 34.6C130.8 30.1 130.5 25.7 130.2 21.6H130.7L138.7 38.2L163.1 82.2H177.3V4H164V38C164 42.4 164.1 46.9 164.6 51.6C165.1 56.3 165.4 60.6 165.7 64.7H165.2L157.2 48.1L132.8 4.10001H118.6V82.3H131.9V48.1L132 48Z" fill="black"/>
<path d="M210.7 73.2C214 76.6 217.8 79.3 222.2 81C226.7 82.7 231.5 83.6 236.7 83.6C241.9 83.6 247 82.7 251.4 80.9C255.8 79.1 259.3 76.9 262 74.3V39.9H234.7V51.2H249.5V68C248.2 69.1 246.5 69.9 244.6 70.6C242.6 71.2 240.5 71.5 238.3 71.5C230.4 71.5 224.5 69 220.4 63.9C216.4 58.9 214.3 51.9 214.3 43C214.3 34.1 214.8 34.7 215.9 31C217 27.5 218.6 24.5 220.6 22.1C222.6 19.7 225.1 17.8 227.9 16.5C230.7 15.2 234 14.6 237.4 14.6C240.8 14.6 244.1 15.2 246.4 16.4C248.8 17.6 250.9 19.2 252.9 21.1L260.6 12.5C259.4 11.2 258 9.99999 256.4 8.79999C254.9 7.59999 253.1 6.60001 251.2 5.60001C249.3 4.70001 247.2 3.99999 244.9 3.39999C242.6 2.89999 240.1 2.60001 237.4 2.60001C232.2 2.60001 227.3 3.49999 222.7 5.39999C218.2 7.19999 214.2 9.89999 210.9 13.4C207.6 16.9 204.9 21.3 203 26.3C201.1 31.4 200.1 37.1 200.1 43.5C200.1 49.9 201 55.7 202.9 60.7C204.7 65.7 207.3 70 210.6 73.4L210.7 73.2Z" fill="black"/>
<path d="M294.3 75.4C296.9 78.3 300 80.4 303.6 81.7C307.2 83 311.3 83.6 315.8 83.6C320.3 83.6 324.4 82.9 328 81.7C331.6 80.4 334.7 78.3 337.3 75.4C339.9 72.5 341.9 68.9 343.2 64.3C344.5 59.8 345.2 54.4 345.2 47.9V4.10001H331.9V49C331.9 53.2 331.5 56.8 330.7 59.7C329.9 62.6 328.8 64.9 327.4 66.7C326 68.4 324.3 69.7 322.3 70.5C320.3 71.3 318.1 71.6 315.7 71.6C313.3 71.6 311.2 71.3 309.3 70.5C307.4 69.7 305.8 68.5 304.3 66.7C302.9 65 301.9 62.6 301.1 59.7C300.3 56.8 300 53.2 300 49V4.10001H286.2V47.9C286.2 54.4 286.9 59.9 288.3 64.3C289.7 68.8 291.6 72.5 294.3 75.4Z" fill="black"/>
<path d="M831.8 29.2H729.5V38.6H831.8V29.2Z" fill="#DA121A"/>
<path d="M831.8 66.6H729.5V76H831.8V66.6Z" fill="#DA121A"/>
<path d="M831.8 47.9H729.5V57.2H831.8V47.9Z" fill="#DA121A"/>
<path d="M831.8 57.2H729.5V66.5H831.8V57.2Z" fill="#FCDD09"/>
<path d="M831.8 38.5H729.5V47.9H831.8V38.5Z" fill="#FCDD09"/>
<path d="M831.8 75.9H729.5V85.3H831.8V75.9Z" fill="#FCDD09"/>
<path d="M831.8 19.8H729.5V29.1H831.8V19.8Z" fill="#FCDD09"/>
<path d="M831.8 10.5H729.5V19.9H831.8V10.5Z" fill="#DA121A"/>
<path d="M831.8 1.10001H729.5V10.4H831.8V1.10001Z" fill="#FCDD09"/>
<path d="M729.5 0.700012H700V85.3H729.5V0.700012Z" fill="#0072BC"/>
</svg>