<svg xmlns="http://www.w3.org/2000/svg" fill="none" viewBox="0 0 82 82" height="82" width="82">
<g clip-path="url(#clip0_858_2052)">
<path fill="black" d="M10.1471 32.1893C10.7807 32.1893 11.2943 32.7023 11.2943 33.3351V64.7084H70.7057V33.3351C70.7057 32.7023 71.2193 32.1893 71.8529 32.1893C72.4864 32.1893 73 32.7023 73 33.3351V65.8542C73 66.487 72.4864 67 71.8529 67H10.1471C9.51359 67 9 66.487 9 65.8542V33.3351C9 32.7023 9.51359 32.1893 10.1471 32.1893Z" clip-rule="evenodd" fill-rule="evenodd"></path>
<path fill="black" d="M15.205 15.7609C15.3679 15.3046 15.8005 15 16.2855 15H65.7145C66.1995 15 66.6321 15.3046 66.795 15.7609L72.9333 32.9502C73.0586 33.3011 73.0053 33.6909 72.7904 33.9954C72.5755 34.2998 72.2258 34.481 71.8529 34.481H10.1471C9.77418 34.481 9.4245 34.2998 9.20959 33.9954C8.99468 33.6909 8.94138 33.3011 9.06668 32.9502L15.205 15.7609ZM17.0942 17.2916L11.7742 32.1893H70.2258L64.9058 17.2916H17.0942Z" clip-rule="evenodd" fill-rule="evenodd"></path>
<path fill="black" d="M32.1396 44.0564C32.1396 43.4236 32.6532 42.9106 33.2868 42.9106H48.7135C49.3471 42.9106 49.8606 43.4236 49.8606 44.0564V65.8542C49.8606 66.487 49.3471 67 48.7135 67C48.08 67 47.5664 66.487 47.5664 65.8542V45.2023H34.4339V65.8542C34.4339 66.487 33.9203 67 33.2868 67C32.6532 67 32.1396 66.487 32.1396 65.8542V44.0564Z" clip-rule="evenodd" fill-rule="evenodd"></path>
</g>
<defs>
<clipPath id="clip0_858_2052">
<rect transform="translate(9 15)" fill="white" height="52" width="64"></rect>
</clipPath>
</defs>
</svg>
